# xmcd
#
# Track frame offsets:
#	150
#	16732
#	33294
#	49075
#	67260
#	84678
#	101379
#	121291
#	138647
#	150346
#	166058
#	186757
#	207401
#	223127
#	234596
#
# Disc length: 3350 seconds
#
# Revision: 0
# Processed by: cddbd v1.5.2PL0 Copyright (c) Steve Scherf et al.
# Submitted via: SynApp - FreeCDDB Version: 2.3
#
DISCID=cb0d140f
DTITLE=Zimmer, Joana - div
DYEAR=2006
DGENRE=0
TTITLE0=Joana Zimmer - Bringing Down The Moon
TTITLE1=Joana Zimmer - In The End
TTITLE2=Joana Zimmer - Got To Be Sure
TTITLE3=Joana Zimmer - Island In The Stream
TTITLE4=Joana Zimmer - I've Learned To Walk Alone [Live with the "Deutsche Filmorchester Babelsberg"]/Live with the "Deutsche Filmorchester Babelsberg"
TTITLE5=Joana Zimmer - Love Is A Temple
TTITLE6=Joana Zimmer - Miss You In My Arms
TTITLE7=Joana Zimmer - Power On Your Side
TTITLE8=Joana Zimmer - What A Wonderful World
TTITLE9=Joana Zimmer - What You Give Is What You Get
TTITLE10=Joana Zimmer - When We Dance
TTITLE11=Joana Zimmer - When You Love Somebody
TTITLE12=Joana Zimmer - Any Other Day
TTITLE13=Joana Zimmer - Because Of You
TTITLE14=Joana Zimmer, David Bisbal - Let´s Make History
EXTD=
EXTT0=
EXTT1=
EXTT2=
EXTT3=
EXTT4=
EXTT5=
EXTT6=
EXTT7=
EXTT8=
EXTT9=
EXTT10=
EXTT11=
EXTT12=
EXTT13=
EXTT14=
PLAYORDER=
